<svg width="32" height="33" viewBox="0 0 32 33" fill="none" xmlns="http://www.w3.org/2000/svg">
<ellipse cx="21.7133" cy="5.25862" rx="2.66484" ry="4.00007" transform="rotate(30.7312 21.7133 5.25862)" fill="black"/>
<ellipse cx="15.3543" cy="4.00007" rx="2.66484" ry="4.00007" fill="black"/>
<ellipse cx="26.3507" cy="9.91357" rx="2.66484" ry="4.00007" transform="rotate(60 26.3507 9.91357)" fill="black"/>
<ellipse cx="27.7529" cy="16.2235" rx="2.54823" ry="4.24706" transform="rotate(90 27.7529 16.2235)" fill="black"/>
<ellipse cx="25.9031" cy="22.3381" rx="2.37609" ry="4.54962" transform="rotate(120 25.9031 22.3381)" fill="black"/>
<ellipse cx="21.3176" cy="26.6026" rx="2.21018" ry="4.7827" transform="rotate(150 21.3176 26.6026)" fill="black"/>
<ellipse cx="15.3945" cy="27.9457" rx="1.99612" ry="5.01153" transform="rotate(-180 15.3945 27.9457)" fill="black"/>
<ellipse cx="9.6771" cy="26.1627" rx="1.88392" ry="5.29539" transform="rotate(-149.465 9.6771 26.1627)" fill="black"/>
<ellipse cx="5.71172" cy="21.8333" rx="1.7614" ry="5.57801" transform="rotate(-120 5.71172 21.8333)" fill="black"/>
</svg>
