<svg width="40" height="45" viewBox="0 0 40 45" fill="none" xmlns="http://www.w3.org/2000/svg">
<path fill-rule="evenodd" clip-rule="evenodd" d="M35.419 38.1324C44.3822 24.7933 38.038 0.865087 25.3237 0.05651C22.9822 -0.0924209 22.9524 -0.0137197 24.9168 1.12496C37.8741 8.63427 37.6361 37.9181 24.5685 44.0308C23.073 44.7306 23.1252 44.9624 24.7634 44.8927C28.8532 44.7186 32.5835 42.3522 35.419 38.1324ZM24.3343 39.3913C31.6666 30.1059 30.9378 11.826 22.9153 3.80351C13.4703 -5.64156 0.714444 3.93603 0.0304585 20.9868C-0.765852 40.8346 14.2282 52.1892 24.3343 39.3913ZM18.1928 37.0584C13.5041 28.6741 13.6661 14.3238 18.5291 7.24548C19.2343 6.2188 19.2343 6.21879 20.4704 7.77059C26.3857 15.1955 26.2276 31.2856 20.1793 37.3943C19.0299 38.5553 19.0299 38.5553 18.1928 37.0584ZM12.5151 39.7677C1.34927 35.5039 2.63144 5.69561 14.023 4.71364C15.6905 4.57008 15.7796 4.75081 14.736 6.16256C8.86851 14.0995 8.58848 28.6844 14.1285 37.7911C15.8027 40.5435 15.5043 40.9094 12.5151 39.7677Z" fill="black"/>
</svg>
