<svg width="48" height="48" viewBox="0 0 48 48" fill="none" xmlns="http://www.w3.org/2000/svg">
<rect width="48" height="48" rx="10" fill="black"/>
<path fill-rule="evenodd" clip-rule="evenodd" d="M34.4989 35.1269C40.8727 25.6414 36.3613 8.62576 27.32 8.05077C25.6549 7.94486 25.6337 8.00083 27.0306 8.81056C36.2447 14.1505 36.0755 34.9745 26.783 39.3214C25.7195 39.819 25.7566 39.9839 26.9216 39.9343C29.8299 39.8105 32.4825 38.1277 34.4989 35.1269ZM26.6164 36.0222C31.8305 29.4192 31.3122 16.4202 25.6074 10.7153C18.8909 3.99881 9.82007 10.8095 9.33368 22.9345C8.76742 37.0485 19.4299 45.1229 26.6164 36.0222ZM22.2491 34.3632C18.915 28.4011 19.0301 18.1964 22.4883 13.1629C22.9898 12.4328 22.9898 12.4328 23.8688 13.5363C28.0752 18.8163 27.9627 30.2581 23.6618 34.6021C22.8444 35.4277 22.8444 35.4277 22.2491 34.3632ZM18.2116 36.2899C10.2715 33.2578 11.1833 12.0608 19.2839 11.3625C20.4697 11.2604 20.5331 11.3889 19.7909 12.3929C15.6185 18.0369 15.4194 28.4084 19.359 34.8842C20.5495 36.8415 20.3373 37.1017 18.2116 36.2899Z" fill="white"/>
</svg>
