<svg width="45" height="50" viewBox="0 0 45 50" fill="none" xmlns="http://www.w3.org/2000/svg">
<path fill-rule="evenodd" clip-rule="evenodd" d="M40.2341 42.4594C50.4159 27.6067 43.2092 0.963252 28.7664 0.0629225C26.1065 -0.102908 26.0727 -0.0152765 28.3042 1.25261C43.0229 9.61403 42.7526 42.2208 27.9086 49.0271C26.2097 49.8063 26.269 50.0645 28.1299 49.9868C32.7757 49.793 37.0132 47.1581 40.2341 42.4594ZM27.6424 43.8612C35.9716 33.5222 35.1437 13.1679 26.0306 4.23511C15.3015 -6.28173 0.81157 4.38266 0.0345992 23.3682C-0.869968 45.4683 16.1625 58.1113 27.6424 43.8612ZM20.6661 41.2635C15.34 31.9279 15.524 15.9491 21.0481 8.06765C21.8492 6.92447 21.8492 6.92446 23.2533 8.65235C29.9728 16.9198 29.7931 34.8357 22.9226 41.6376C21.6169 42.9303 21.6169 42.9303 20.6661 41.2635ZM14.2165 44.2803C1.53269 39.5327 2.98917 6.34191 15.9293 5.24851C17.8236 5.08867 17.9248 5.2899 16.7393 6.86185C10.0742 15.6994 9.75606 31.9393 16.0493 42.0793C17.951 45.1441 17.6121 45.5516 14.2165 44.2803Z" fill="white"/>
</svg>
